<?xml version="1.0" standalone="no"?>
<!DOCTYPE svg PUBLIC "-//W3C//DTD SVG 20010904//EN"
 "http://www.w3.org/TR/2001/REC-SVG-20010904/DTD/svg10.dtd">
<svg version="1.0" xmlns="http://www.w3.org/2000/svg"
 width="800.000000pt" height="800.000000pt" viewBox="0 0 800.000000 800.000000"
 preserveAspectRatio="xMidYMid meet">
<metadata>
Created by potrace 1.11, written by Peter Selinger 2001-2013
</metadata>
<g transform="translate(0.000000,800.000000) scale(0.100000,-0.100000)"
fill="#000000" stroke="none">
<path d="M2500 6750 l0 -250 -250 0 -250 0 0 -2750 0 -2750 250 0 250 0 0
2750 0 2750 250 0 250 0 0 -2750 0 -2750 250 0 250 0 0 1500 0 1500 1250 0
1250 0 0 250 0 250 250 0 250 0 0 1000 0 1000 -250 0 -250 0 0 250 0 250
-1750 0 -1750 0 0 -250z m3500 -1250 l0 -1000 -1250 0 -1250 0 0 1000 0 1000
1250 0 1250 0 0 -1000z"/>
</g>
</svg>
